<?xml version="1.0" encoding="UTF-8" standalone="no"?>
<!DOCTYPE svg PUBLIC "-//W3C//DTD SVG 1.1//EN"
 "http://www.w3.org/Graphics/SVG/1.1/DTD/svg11.dtd">
<!-- Generated by graphviz version 2.38.0 (20140413.2041)
 -->
<!-- Title: G Pages: 1 -->
<svg width="956pt" height="204pt"
 viewBox="0.00 0.00 956.04 204.00" xmlns="http://www.w3.org/2000/svg" xmlns:xlink="http://www.w3.org/1999/xlink">
<g id="graph0" class="graph" transform="scale(1 1) rotate(0) translate(4 200)">
<title>G</title>
<polygon fill="white" stroke="none" points="-4,4 -4,-200 952.038,-200 952.038,4 -4,4"/>
<g id="clust1" class="cluster"><title>cluster_Global</title>
<path fill="none" stroke="gray" d="M750.038,-8C750.038,-8 928.038,-8 928.038,-8 934.038,-8 940.038,-14 940.038,-20 940.038,-20 940.038,-176 940.038,-176 940.038,-182 934.038,-188 928.038,-188 928.038,-188 750.038,-188 750.038,-188 744.038,-188 738.038,-182 738.038,-176 738.038,-176 738.038,-20 738.038,-20 738.038,-14 744.038,-8 750.038,-8"/>
<text text-anchor="middle" x="839.038" y="-175.2" font-family="Times New Roman,serif" font-size="11.00" fill="gray">Global</text>
</g>
<g id="clust2" class="cluster"><title>cluster_\Slothsoft</title>
<path fill="none" stroke="gray" d="M758.038,-16C758.038,-16 920.038,-16 920.038,-16 926.038,-16 932.038,-22 932.038,-28 932.038,-28 932.038,-148 932.038,-148 932.038,-154 926.038,-160 920.038,-160 920.038,-160 758.038,-160 758.038,-160 752.038,-160 746.038,-154 746.038,-148 746.038,-148 746.038,-28 746.038,-28 746.038,-22 752.038,-16 758.038,-16"/>
<text text-anchor="middle" x="839.038" y="-147.2" font-family="Times New Roman,serif" font-size="11.00" fill="gray">Slothsoft</text>
</g>
<g id="clust3" class="cluster"><title>cluster_\Slothsoft\TalesOf</title>
<path fill="none" stroke="gray" d="M766.038,-24C766.038,-24 912.038,-24 912.038,-24 918.038,-24 924.038,-30 924.038,-36 924.038,-36 924.038,-120 924.038,-120 924.038,-126 918.038,-132 912.038,-132 912.038,-132 766.038,-132 766.038,-132 760.038,-132 754.038,-126 754.038,-120 754.038,-120 754.038,-36 754.038,-36 754.038,-30 760.038,-24 766.038,-24"/>
<text text-anchor="middle" x="839.038" y="-119.2" font-family="Times New Roman,serif" font-size="11.00" fill="gray">TalesOf</text>
</g>
<g id="clust4" class="cluster"><title>cluster_\Slothsoft\TalesOf\Assets</title>
<path fill="none" stroke="gray" d="M774.038,-32C774.038,-32 904.038,-32 904.038,-32 910.038,-32 916.038,-38 916.038,-44 916.038,-44 916.038,-92 916.038,-92 916.038,-98 910.038,-104 904.038,-104 904.038,-104 774.038,-104 774.038,-104 768.038,-104 762.038,-98 762.038,-92 762.038,-92 762.038,-44 762.038,-44 762.038,-38 768.038,-32 774.038,-32"/>
<text text-anchor="middle" x="839.038" y="-91.2" font-family="Times New Roman,serif" font-size="11.00" fill="gray">Assets</text>
</g>
<!-- \\Slothsoft\\TalesOf\\Assets\\MelnicsTestBuilder -->
<g id="node1" class="node"><title>\\Slothsoft\\TalesOf\\Assets\\MelnicsTestBuilder</title>
<polygon fill="none" stroke="black" points="908.038,-76 770.038,-76 770.038,-40 908.038,-40 908.038,-76"/>
<text text-anchor="middle" x="839.038" y="-55.2" font-family="Courier,monospace" font-size="11.00">MelnicsTestBuilder</text>
</g>
<!-- \\Slothsoft\\Farah\\Module\\Asset\\ExecutableBuilderStrategy\\ExecutableBuilderStrategyInterface -->
<g id="node2" class="node"><title>\\Slothsoft\\Farah\\Module\\Asset\\ExecutableBuilderStrategy\\ExecutableBuilderStrategyInterface</title>
<ellipse fill="none" stroke="black" cx="349.019" cy="-58" rx="349.038" ry="18"/>
<text text-anchor="middle" x="349.019" y="-54.3" font-family="Times New Roman,serif" font-size="14.00" fill="gray">\Slothsoft\Farah\Module\Asset\ExecutableBuilderStrategy\ExecutableBuilderStrategyInterface</text>
</g>
<!-- \\Slothsoft\\TalesOf\\Assets\\MelnicsTestBuilder&#45;&gt;\\Slothsoft\\Farah\\Module\\Asset\\ExecutableBuilderStrategy\\ExecutableBuilderStrategyInterface -->
<g id="edge1" class="edge"><title>\\Slothsoft\\TalesOf\\Assets\\MelnicsTestBuilder&#45;&gt;\\Slothsoft\\Farah\\Module\\Asset\\ExecutableBuilderStrategy\\ExecutableBuilderStrategyInterface</title>
<path fill="none" stroke="black" stroke-dasharray="1,5" d="M769.924,-58C751.772,-58 730.849,-58 708.236,-58"/>
<polygon fill="none" stroke="black" points="708.089,-54.5001 698.089,-58 708.089,-61.5001 708.089,-54.5001"/>
</g>
</g>
</svg>
