<?xml version="1.0" encoding="UTF-8" standalone="no"?>
<!DOCTYPE svg PUBLIC "-//W3C//DTD SVG 1.1//EN"
 "http://www.w3.org/Graphics/SVG/1.1/DTD/svg11.dtd">
<!-- Generated by graphviz version 2.38.0 (20140413.2041)
 -->
<!-- Title: G Pages: 1 -->
<svg width="581pt" height="204pt"
 viewBox="0.00 0.00 581.47 204.00" xmlns="http://www.w3.org/2000/svg" xmlns:xlink="http://www.w3.org/1999/xlink">
<g id="graph0" class="graph" transform="scale(1 1) rotate(0) translate(4 200)">
<title>G</title>
<polygon fill="white" stroke="none" points="-4,4 -4,-200 577.467,-200 577.467,4 -4,4"/>
<g id="clust1" class="cluster"><title>cluster_Global</title>
<path fill="none" stroke="gray" d="M422.467,-8C422.467,-8 553.467,-8 553.467,-8 559.467,-8 565.467,-14 565.467,-20 565.467,-20 565.467,-176 565.467,-176 565.467,-182 559.467,-188 553.467,-188 553.467,-188 422.467,-188 422.467,-188 416.467,-188 410.467,-182 410.467,-176 410.467,-176 410.467,-20 410.467,-20 410.467,-14 416.467,-8 422.467,-8"/>
<text text-anchor="middle" x="487.967" y="-175.2" font-family="Times New Roman,serif" font-size="11.00" fill="gray">Global</text>
</g>
<g id="clust2" class="cluster"><title>cluster_\Slothsoft</title>
<path fill="none" stroke="gray" d="M430.467,-16C430.467,-16 545.467,-16 545.467,-16 551.467,-16 557.467,-22 557.467,-28 557.467,-28 557.467,-148 557.467,-148 557.467,-154 551.467,-160 545.467,-160 545.467,-160 430.467,-160 430.467,-160 424.467,-160 418.467,-154 418.467,-148 418.467,-148 418.467,-28 418.467,-28 418.467,-22 424.467,-16 430.467,-16"/>
<text text-anchor="middle" x="487.967" y="-147.2" font-family="Times New Roman,serif" font-size="11.00" fill="gray">Slothsoft</text>
</g>
<g id="clust3" class="cluster"><title>cluster_\Slothsoft\TalesOf</title>
<path fill="none" stroke="gray" d="M438.467,-24C438.467,-24 537.467,-24 537.467,-24 543.467,-24 549.467,-30 549.467,-36 549.467,-36 549.467,-120 549.467,-120 549.467,-126 543.467,-132 537.467,-132 537.467,-132 438.467,-132 438.467,-132 432.467,-132 426.467,-126 426.467,-120 426.467,-120 426.467,-36 426.467,-36 426.467,-30 432.467,-24 438.467,-24"/>
<text text-anchor="middle" x="487.967" y="-119.2" font-family="Times New Roman,serif" font-size="11.00" fill="gray">TalesOf</text>
</g>
<g id="clust4" class="cluster"><title>cluster_\Slothsoft\TalesOf\Assets</title>
<path fill="none" stroke="gray" d="M446.467,-32C446.467,-32 529.467,-32 529.467,-32 535.467,-32 541.467,-38 541.467,-44 541.467,-44 541.467,-92 541.467,-92 541.467,-98 535.467,-104 529.467,-104 529.467,-104 446.467,-104 446.467,-104 440.467,-104 434.467,-98 434.467,-92 434.467,-92 434.467,-44 434.467,-44 434.467,-38 440.467,-32 446.467,-32"/>
<text text-anchor="middle" x="487.967" y="-91.2" font-family="Times New Roman,serif" font-size="11.00" fill="gray">Assets</text>
</g>
<!-- \\Slothsoft\\TalesOf\\Assets\\MelnicsTest -->
<g id="node1" class="node"><title>\\Slothsoft\\TalesOf\\Assets\\MelnicsTest</title>
<polygon fill="none" stroke="black" points="533.467,-76 442.467,-76 442.467,-40 533.467,-40 533.467,-76"/>
<text text-anchor="middle" x="487.967" y="-55.2" font-family="Courier,monospace" font-size="11.00">MelnicsTest</text>
</g>
<!-- \\Slothsoft\\Farah\\Module\\Node\\Asset\\AssetBase -->
<g id="node2" class="node"><title>\\Slothsoft\\Farah\\Module\\Node\\Asset\\AssetBase</title>
<ellipse fill="none" stroke="black" cx="185.234" cy="-58" rx="185.467" ry="18"/>
<text text-anchor="middle" x="185.234" y="-54.3" font-family="Times New Roman,serif" font-size="14.00" fill="gray">\Slothsoft\Farah\Module\Node\Asset\AssetBase</text>
</g>
<!-- \\Slothsoft\\TalesOf\\Assets\\MelnicsTest&#45;&gt;\\Slothsoft\\Farah\\Module\\Node\\Asset\\AssetBase -->
<g id="edge1" class="edge"><title>\\Slothsoft\\TalesOf\\Assets\\MelnicsTest&#45;&gt;\\Slothsoft\\Farah\\Module\\Node\\Asset\\AssetBase</title>
<path fill="none" stroke="black" d="M442.269,-58C424.809,-58 403.505,-58 380.719,-58"/>
<polygon fill="none" stroke="black" points="380.513,-54.5001 370.513,-58 380.513,-61.5001 380.513,-54.5001"/>
</g>
</g>
</svg>
